<?xml version="1.0" encoding="UTF-8"?>
<svg version="1.1" xmlns="http://www.w3.org/2000/svg" width="693" height="240">
<path d="M0 0 C228.69 0 457.38 0 693 0 C693 79.2 693 158.4 693 240 C464.31 240 235.62 240 0 240 C0 160.8 0 81.6 0 0 Z " fill="#4C4D4D" transform="translate(0,0)"/>
<path d="M0 0 C1.62186577 0.00985645 3.24375437 0.01644859 4.86564636 0.01992798 C8.25289398 0.03516208 11.63843701 0.07614244 15.02514648 0.13818359 C19.37102943 0.21764907 23.71580991 0.25345485 28.06233692 0.27280235 C32.2083743 0.29271339 36.35414188 0.33248255 40.5 0.375 C41.29238382 0.3817915 42.08476765 0.38858299 42.9011631 0.39558029 C45.13471506 0.4186713 47.36756077 0.45569261 49.60083008 0.49755859 C51.50775383 0.52709122 51.50775383 0.52709122 53.45320129 0.55722046 C56.41796875 0.8515625 56.41796875 0.8515625 58.41796875 2.8515625 C58.2291756 7.04277043 55.19916828 9.99260344 52.66796875 13.1015625 C52.18207275 13.7092749 51.69617676 14.3169873 51.19555664 14.94311523 C49.61125946 16.91940347 48.01634297 18.88664561 46.41796875 20.8515625 C45.87962402 21.51365723 45.3412793 22.17575195 44.78662109 22.85791016 C42.58835434 25.55938671 40.38933748 28.26023731 38.18652344 30.95800781 C34.86130471 35.0401228 31.610851 39.16510911 28.41796875 43.3515625 C24.15713028 48.93830208 19.7533826 54.39400497 15.30908203 59.83544922 C9.92259015 66.4382968 4.66175143 73.13522339 -0.58203125 79.8515625 C-2.60112425 82.43626249 -4.62232439 85.01929835 -6.64453125 87.6015625 C-7.11004395 88.19855957 -7.57555664 88.79555664 -8.05517578 89.41064453 C-9.81930634 91.66324295 -11.55672056 93.82625181 -13.58203125 95.8515625 C-16.63186646 96.09207153 -16.63186646 96.09207153 -20.60205078 96.07861328 C-21.32410706 96.07890533 -22.04616333 96.07919739 -22.7901001 96.07949829 C-25.18180267 96.07810258 -27.57319546 96.06253033 -29.96484375 96.046875 C-31.62108185 96.04314572 -33.27732214 96.04029835 -34.93356323 96.03829956 C-39.29675365 96.03065639 -43.65981132 96.0110021 -48.02294922 95.9888916 C-52.47361454 95.96844785 -56.92430128 95.959301 -61.375 95.94921875 C-70.11073806 95.92775679 -78.84636815 95.89361268 -87.58203125 95.8515625 C-88.71289062 91.09716797 -88.71289062 91.09716797 -87.53515625 88.88671875 C-86.973125 88.23574219 -86.41109375 87.58476562 -85.83203125 86.9140625 C-84.85363281 85.74230469 -84.85363281 85.74230469 -83.85546875 84.546875 C-83.10523438 83.65742188 -82.355 82.76796875 -81.58203125 81.8515625 C-80.32273169 80.24845417 -79.06382861 78.64500884 -77.81347656 77.03491211 C-72.77662443 70.55209541 -67.611126 64.17718136 -62.42163086 57.81640625 C-58.45177076 52.9427282 -54.54732396 48.02228573 -50.67578125 43.0703125 C-46.84546077 38.17416371 -42.96485348 33.3196799 -39.07324219 28.47216797 C-36.57256423 25.35322623 -34.08498761 22.22538853 -31.625 19.07421875 C-31.14482422 18.45933594 -30.66464844 17.84445313 -30.16992188 17.2109375 C-29.27718479 16.06544501 -28.38635373 14.9184627 -27.49804688 13.76953125 C-26.68259999 12.72310488 -25.85117832 11.68888227 -25.00241089 10.66929626 C-23.53406796 8.87063842 -23.53406796 8.87063842 -22.37319946 6.80763245 C-16.85262325 -1.38707102 -8.87123947 -0.20620538 0 0 Z " fill="#00FDC1" transform="translate(545.58203125,120.1484375)"/>
<path d="M0 0 C0.70091263 -0.01299637 1.40182526 -0.02599274 2.12397766 -0.03938293 C9.47406935 -0.16637413 16.82532681 -0.22290348 24.17626953 -0.27441406 C27.66291925 -0.30112888 31.14819618 -0.34980675 34.63427734 -0.41796875 C38.84366659 -0.50006733 43.05175164 -0.54262118 47.26189804 -0.55747795 C48.8639452 -0.5697054 50.4659507 -0.59569237 52.06753922 -0.6359272 C64.58376021 -0.93450393 64.58376021 -0.93450393 68.77139282 1.93850708 C70.56399964 3.95640638 71.92406758 5.92282166 73.29638672 8.24047852 C74.30591683 9.56370545 75.32768335 10.877776 76.36669922 12.17797852 C77.38706811 13.53053362 78.40523374 14.8847532 79.42138672 16.24047852 C83.83896706 22.07907618 88.34348593 27.82736008 92.98388672 33.49047852 C98.0819668 39.71685315 103.02733288 46.0336597 107.90966797 52.43139648 C110.66628528 56.02761731 113.45128664 59.6018499 116.23388672 63.17797852 C116.8265332 63.93981445 117.41917969 64.70165039 118.02978516 65.48657227 C122.28072543 70.94641008 126.54789769 76.393301 130.83325195 81.82617188 C131.99080773 83.29510903 133.14381152 84.76763021 134.29638672 86.24047852 C134.89580078 86.98168945 135.49521484 87.72290039 136.11279297 88.48657227 C137.29638672 90.24047852 137.29638672 90.24047852 137.04638672 92.42797852 C136.29638672 94.24047852 136.29638672 94.24047852 135.29638672 95.24047852 C133.10065198 95.38228242 130.90031298 95.4530556 128.70043945 95.49682617 C128.01088669 95.51142883 127.32133392 95.52603149 126.61088562 95.54107666 C120.22995924 95.66737818 113.84776588 95.7359014 107.46584988 95.78891945 C103.17853439 95.82463074 98.8931033 95.87778613 94.60668945 95.97436523 C90.46209037 96.06747085 86.3191563 96.11588538 82.17357063 96.13331223 C80.59741807 96.14736453 79.02132081 96.17691076 77.44576836 96.22261429 C65.11922084 96.56254672 65.11922084 96.56254672 60.57298279 93.26524353 C58.55519926 91.01775788 56.90449699 88.79110299 55.29638672 86.24047852 C54.58869141 85.39098633 53.88099609 84.54149414 53.15185547 83.66625977 C52.60142578 82.96887695 52.05099609 82.27149414 51.48388672 81.55297852 C50.82259766 80.71766602 50.16130859 79.88235352 49.47998047 79.02172852 C48.39910156 77.64500977 48.39910156 77.64500977 47.29638672 76.24047852 C46.89049316 75.72356445 46.48459961 75.20665039 46.06640625 74.67407227 C44.25857125 72.37158312 42.45090374 70.06896496 40.64477539 67.76513672 C36.72092801 62.76547152 32.75282094 57.8022469 28.77563477 52.8449707 C24.98758624 48.1183069 21.24621143 43.35677556 17.515625 38.5847168 C14.50413639 34.74514968 11.44247213 30.95013611 8.35327148 27.17285156 C5.65503344 23.87221984 2.97330023 20.55841538 0.29638672 17.24047852 C-0.18765625 16.64332031 -0.67169922 16.04616211 -1.17041016 15.4309082 C-2.48767002 13.79495644 -3.78605116 12.14597425 -5.07861328 10.49047852 C-5.80822266 9.56750977 -6.53783203 8.64454102 -7.28955078 7.69360352 C-8.70361328 5.24047852 -8.70361328 5.24047852 -8.49267578 2.97485352 C-6.72633429 -0.90760007 -4.00098396 0.06883192 0 0 Z " fill="#05C08F" transform="translate(465.70361328125,19.759521484375)"/>
<path d="M0 0 C5.96845754 2.51908628 9.82785188 6.45596886 13.1875 11.9375 C16.30781473 19.85829893 15.89941113 29.10779578 12.90625 36.96484375 C10.67792569 41.9689686 8.19352954 45.74029913 3.19140625 48.30078125 C-1.94665164 49.94019723 -8.16948377 50.44730169 -13.0703125 47.94140625 C-15.20406307 46.20451267 -16.76689681 44.46620637 -18 42 C-18.33 49.92 -18.66 57.84 -19 66 C-23.29 66 -27.58 66 -32 66 C-32 44.55 -32 23.1 -32 1 C-27.71 1 -23.42 1 -19 1 C-18.67 2.98 -18.34 4.96 -18 7 C-17.51789063 6.57847656 -17.03578125 6.15695313 -16.5390625 5.72265625 C-15.90742188 5.17480469 -15.27578125 4.62695312 -14.625 4.0625 C-13.68527344 3.24458984 -13.68527344 3.24458984 -12.7265625 2.41015625 C-8.84063863 -0.7636413 -4.82986914 -0.68557951 0 0 Z " fill="#01FCC1" transform="translate(201,129)"/>
<path d="M0 0 C12 0 12 0 15.296875 2.859375 C16.15661118 4.12877855 16.97336794 5.42811713 17.75 6.75 C18.42156128 7.77347534 18.42156128 7.77347534 19.10668945 8.81762695 C20.01202583 10.2045149 20.9001504 11.60280296 21.77001953 13.01220703 C23.49177556 15.7947671 25.34539231 18.48358754 27.1875 21.1875 C28.445625 23.105625 29.70375 25.02375 31 27 C34.96 32.94 34.96 32.94 39 39 C39.33 26.13 39.66 13.26 40 0 C44.29 0 48.58 0 53 0 C53 20.79 53 41.58 53 63 C41 63 41 63 38.02734375 60.5 C36.94799805 58.83422852 36.94799805 58.83422852 35.9375 57 C35.13067098 55.71715682 34.32335981 54.43461679 33.515625 53.15234375 C32.90750977 52.13696533 32.90750977 52.13696533 32.28710938 51.10107422 C30.0720542 47.48522352 27.61273128 44.03917 25.1875 40.5625 C23.92905242 38.72356409 22.673357 36.88278392 21.41870117 35.04125977 C19.3093521 32.00627997 17.1482595 29.0075633 15 26 C14.67 38.54 14.34 51.08 14 64 C9.38 64 4.76 64 0 64 C0 42.88 0 21.76 0 0 Z " fill="#FBFBFB" transform="translate(174,55)"/>
<path d="M0 0 C5.91467482 2.50718393 8.88138209 6.86324288 11.83984375 12.421875 C14.39525741 20.08811599 14.17886 30.8330457 10.71484375 38.171875 C7.7626206 43.09504258 4.3875312 46.57264585 -1.16015625 48.421875 C-11.41933792 49.40430841 -11.41933792 49.40430841 -15.78515625 46.546875 C-18.16015625 44.421875 -18.16015625 44.421875 -19.16015625 42.421875 C-19.49015625 50.011875 -19.82015625 57.601875 -20.16015625 65.421875 C-24.45015625 65.421875 -28.74015625 65.421875 -33.16015625 65.421875 C-33.16015625 43.971875 -33.16015625 22.521875 -33.16015625 0.421875 C-28.87015625 0.421875 -24.58015625 0.421875 -20.16015625 0.421875 C-19.83015625 2.071875 -19.50015625 3.721875 -19.16015625 5.421875 C-18.21140625 4.6175 -17.26265625 3.813125 -16.28515625 2.984375 C-11.28745744 -1.25280442 -6.35290145 -1.70023402 0 0 Z " fill="#01FBC0" transform="translate(258.16015625,129.578125)"/>
<path d="M0 0 C-0.76418594 4.68149505 -2.21983804 6.84937417 -5.375 10.4375 C-6.29482858 11.50230247 -7.21272741 12.56877435 -8.12890625 13.63671875 C-8.60473145 14.1889209 -9.08055664 14.74112305 -9.57080078 15.31005859 C-11.89760009 18.06135767 -14.10298585 20.90429119 -16.3125 23.75 C-21.01940592 29.78970707 -25.82573306 35.74343616 -30.6730957 41.67089844 C-31.19347412 42.30801758 -31.71385254 42.94513672 -32.25 43.6015625 C-32.70890625 44.16182129 -33.1678125 44.72208008 -33.640625 45.29931641 C-35.09137196 46.99541202 -35.09137196 46.99541202 -36.10668945 49.18798828 C-38.77538946 51.74209421 -40.84170886 51.45454337 -44.43852234 51.45318604 C-45.29798965 51.43254089 -46.15745697 51.41189575 -47.04296875 51.390625 C-47.9265657 51.38496521 -48.81016266 51.37930542 -49.72053528 51.37347412 C-52.54340743 51.35107867 -55.36501138 51.30087727 -58.1875 51.25 C-60.10089313 51.22993906 -62.01430615 51.21168758 -63.92773438 51.1953125 C-68.61897842 51.15120357 -73.30927418 51.08215485 -78 51 C-77.46903419 47.44054839 -76.76944644 45.25209689 -74.4453125 42.50390625 C-73.65543945 41.55354492 -73.65543945 41.55354492 -72.84960938 40.58398438 C-71.99592773 39.58334961 -71.99592773 39.58334961 -71.125 38.5625 C-69.92866159 37.12715655 -68.73336574 35.69094355 -67.5390625 34.25390625 C-66.9399707 33.53734863 -66.34087891 32.82079102 -65.72363281 32.08251953 C-63.71121046 29.65108006 -61.75307414 27.18335591 -59.82104492 24.68774414 C-58.93217873 23.55214407 -58.02556889 22.43023501 -57.1027832 21.32202148 C-54.53022186 18.19727008 -52.56651959 15.23508031 -50.83203125 11.5703125 C-41.09011087 -6.68710601 -17.75755659 -1.30101154 0 0 Z " fill="#01FBC0" transform="translate(503,120)"/>
<path d="M0 0 C5.6553785 -0.32363503 11.3052833 -0.55820576 16.96777344 -0.71411133 C18.88897618 -0.7791302 20.80954433 -0.86759078 22.72851562 -0.98071289 C38.19950725 -1.86924957 38.19950725 -1.86924957 42.80703735 1.20614624 C46.35422744 4.63474129 48.63027403 8.71209065 51 13 C51.96605316 14.30476262 52.95825064 15.5914264 53.99609375 16.83984375 C55.72817902 19.03751354 57.46001122 21.23538032 59.19140625 23.43359375 C59.65047363 24.01608887 60.10954102 24.59858398 60.58251953 25.19873047 C62.04615208 27.05864796 63.50597609 28.92149946 64.96484375 30.78515625 C65.45218994 31.40720947 65.93953613 32.0292627 66.44165039 32.67016602 C67.36467983 33.8485182 68.28709212 35.02735421 69.20874023 36.20678711 C69.63227783 36.74698486 70.05581543 37.28718262 70.4921875 37.84375 C70.90049805 38.36839844 71.30880859 38.89304688 71.72949219 39.43359375 C72.60786567 40.51653846 73.52314516 41.57019686 74.46582031 42.59765625 C75.8828125 44.15625 75.8828125 44.15625 78 47 C77.63232422 49.17773438 77.63232422 49.17773438 77 51 C71.64788596 51.34915935 66.30252631 51.60138087 60.94165039 51.76904297 C59.12406926 51.83896853 57.30726225 51.93416627 55.49243164 52.05615234 C40.88292035 53.01270356 40.88292035 53.01270356 36.15167236 49.70959473 C32.82960372 46.45319819 30.38998692 42.69277905 28.03359985 38.70367432 C26.70031848 36.50603736 25.13420109 34.57908358 23.46875 32.625 C22.97358887 32.01946289 22.47842773 31.41392578 21.96826172 30.79003906 C21.48373535 30.19932617 20.99920898 29.60861328 20.5 29 C14.57320993 21.73928037 8.74448995 14.40578844 3 7 C2.40445312 6.27296875 1.80890625 5.5459375 1.1953125 4.796875 C0 3 0 3 0 0 Z " fill="#05BE8E" transform="translate(425,66)"/>
<path d="M0 0 C4.89273407 3.03823003 8.68318538 7.38755254 10.49609375 12.90234375 C11.93484559 20.40167857 12.38386953 29.86820971 8.2734375 36.55859375 C4.57544938 41.1107955 0.5766765 44.43081239 -5.0625 46.203125 C-12.12214898 46.88300161 -20.15621962 47.50141429 -26.41796875 43.66796875 C-31.90456726 38.78085606 -35.58291617 31.99146983 -36.3125 24.70703125 C-36.6851635 16.31045666 -34.43883727 10.80157858 -29.875 3.890625 C-21.47396252 -4.13703304 -10.27900276 -5.21292283 0 0 Z " fill="#01FBC0" transform="translate(149.0625,131.796875)"/>
<path d="M0 0 C4.40298925 3.94172371 7.93244543 8.06914128 9 14 C9 17.3 9 20.6 9 24 C-1.89 24 -12.78 24 -24 24 C-21.84139932 31.43446931 -21.84139932 31.43446931 -19 34 C-15.30681861 34.50414857 -11.69563449 34.47507409 -8 34 C-5.81222534 32.0624994 -5.81222534 32.0624994 -4 30 C0.01174997 29.35240095 4.14348023 29.71449341 8 31 C7.49445676 35.42350331 6.04984798 37.78071602 3 41 C-4.45636301 46.21945411 -13.24962987 45.77260212 -22 45 C-28.59892078 42.68845944 -32.31032752 37.8965814 -35.75 32 C-38.52252659 24.96911765 -37.89727376 16.5813372 -35.4375 9.5625 C-32.72046377 3.594724 -28.31362108 0.54241405 -23 -3 C-14.95360379 -5.36658712 -7.04474631 -4.59384186 0 0 Z " fill="#01FAC0" transform="translate(315,133)"/>
<path d="M0 0 C6.65740189 7.7107028 7 12.35523383 7 23 C-3.89 23 -14.78 23 -26 23 C-23.31682217 31.60646694 -23.31682217 31.60646694 -20 33 C-17.69694711 33.27408121 -17.69694711 33.27408121 -15.125 33.3125 C-14.26132812 33.34988281 -13.39765625 33.38726562 -12.5078125 33.42578125 C-9.83086858 33.22940264 -9.83086858 33.22940264 -8.0703125 30.96484375 C-6 29 -6 29 -2.984375 28.828125 C-1.91703125 28.96734375 -0.8496875 29.1065625 0.25 29.25 C1.32765625 29.37890625 2.4053125 29.5078125 3.515625 29.640625 C4.33546875 29.75921875 5.1553125 29.8778125 6 30 C4.95801987 36.05967086 2.79385202 38.72360529 -2.25 42.3125 C-9.0699308 45.45325761 -18.46343383 45.1963093 -25.63671875 43.3046875 C-31.68575329 40.56245851 -35.46473842 35.91287415 -37.8125 29.75 C-40.43021976 20.75346886 -39.46754705 12.27275428 -35 4 C-32.89242086 1.60023375 -30.651658 -0.23427878 -28 -2 C-27.01 -2.66 -26.02 -3.32 -25 -4 C-16.1584359 -6.67926185 -7.41568189 -5.55218868 0 0 Z " fill="#FAFAFA" transform="translate(275,75)"/>
<path d="M0 0 C2.97905089 1.84553057 4.91568849 3.79688028 6.8125 6.75 C7.5 10 7.5 10 7.8125 12.75 C5.89708862 12.85841951 3.97990227 12.93578079 2.0625 13 C0.46148437 13.06960937 0.46148437 13.06960937 -1.171875 13.140625 C-4.89208024 12.65873313 -5.67215016 11.39963957 -8.1875 8.75 C-10.50623184 8.23430669 -10.50623184 8.23430669 -12.875 8.4375 C-13.66261719 8.46199219 -14.45023437 8.48648438 -15.26171875 8.51171875 C-17.19273225 8.55025705 -17.19273225 8.55025705 -18.1875 9.75 C-18.22813832 11.41617115 -18.230221 13.08388095 -18.1875 14.75 C-17.1975 15.00394531 -16.2075 15.25789063 -15.1875 15.51953125 C3.03958234 20.24301999 3.03958234 20.24301999 7.3125 23.875 C9.42178043 27.91778748 9.58620264 31.28147254 8.8125 35.75 C6.42354306 40.61979684 3.47919958 43.06913003 -1.1875 45.75 C-8.16424844 48.07558281 -19.18804517 48.24606676 -26 45.125 C-30.60118873 41.6966633 -32.95396617 38.30689026 -34.1875 32.75 C-29.83681029 32.106633 -25.58958656 31.59931733 -21.1875 31.75 C-18.375 34.1875 -18.375 34.1875 -16.1875 36.75 C-13.29731817 37.3499579 -11.1876195 37.08872317 -8.1875 36.75 C-7.1975 36.09 -6.2075 35.43 -5.1875 34.75 C-5.46367533 32.80925139 -5.46367533 32.80925139 -6.1875 30.75 C-9.58630177 28.48413216 -12.56602057 28.01728236 -16.5 27.375 C-22.04161179 26.4596691 -25.74936122 25.25068849 -30.1875 21.75 C-33.309282 17.067327 -32.75924249 12.22981767 -32.1875 6.75 C-30.03928645 2.26677172 -26.44668857 0.29681025 -21.9453125 -1.515625 C-14.59643688 -3.47254938 -6.81785996 -3.59244497 0 0 Z " fill="#02FABF" transform="translate(400.1875,131.25)"/>
<path d="M0 0 C17.49 0 34.98 0 53 0 C53 3.63 53 7.26 53 11 C46.4 11 39.8 11 33 11 C33 28.49 33 45.98 33 64 C28.71 64 24.42 64 20 64 C20 46.51 20 29.02 20 11 C13.4 11 6.8 11 0 11 C0 7.37 0 3.74 0 0 Z " fill="#00FDC1" transform="translate(61,114)"/>
<path d="M0 0 C4.29 0 8.58 0 13 0 C13.84884766 1.49853516 13.84884766 1.49853516 14.71484375 3.02734375 C15.4556442 4.33077746 16.19653425 5.63416025 16.9375 6.9375 C17.49727539 7.9265332 17.49727539 7.9265332 18.06835938 8.93554688 C19.76962813 12.15832833 19.76962813 12.15832833 22 15 C24.64 10.05 27.28 5.1 30 0 C34.62 0 39.24 0 44 0 C42.700625 2.3821875 42.700625 2.3821875 41.375 4.8125 C40.56482422 6.31103516 40.56482422 6.31103516 39.73828125 7.83984375 C38.59888229 9.91124545 37.43038451 11.96696316 36.23046875 14.00390625 C35.68003906 14.95136719 35.12960937 15.89882812 34.5625 16.875 C34.04816406 17.73867187 33.53382813 18.60234375 33.00390625 19.4921875 C31.76967461 22.57536537 32.13287537 23.83025622 33 27 C34.10208592 29.31738221 34.10208592 29.31738221 35.50390625 31.57421875 C35.99697266 32.40630859 36.49003906 33.23839844 36.99804688 34.09570312 C37.51431641 34.95099609 38.03058594 35.80628906 38.5625 36.6875 C39.58846765 38.39744608 40.61079852 40.10958122 41.62890625 41.82421875 C42.08338135 42.57791748 42.53785645 43.33161621 43.00610352 44.1081543 C44 46 44 46 44 48 C39.71 48 35.42 48 31 48 C28.03 42.72 25.06 37.44 22 32 C19.08151312 36.89051596 19.08151312 36.89051596 16.16625977 41.78295898 C13.11111111 46.88888889 13.11111111 46.88888889 12 48 C9.81360547 48.07258946 7.62499611 48.08373783 5.4375 48.0625 C3.64119141 48.04896484 3.64119141 48.04896484 1.80859375 48.03515625 C0.88175781 48.02355469 -0.04507812 48.01195312 -1 48 C0.97351644 42.28360754 4.34865835 37.33333834 7.54296875 32.23828125 C8.20619141 31.14580078 8.20619141 31.14580078 8.8828125 30.03125 C9.28902832 29.37705078 9.69524414 28.72285156 10.11376953 28.04882812 C11.2263869 25.47662842 11.31047078 23.78270828 11 21 C10.02506519 18.66568821 10.02506519 18.66568821 8.59375 16.42578125 C8.09746094 15.59369141 7.60117187 14.76160156 7.08984375 13.90429688 C6.30287109 12.62135742 6.30287109 12.62135742 5.5 11.3125 C4.46508435 9.60247352 3.43364794 7.89033496 2.40625 6.17578125 C1.94541016 5.42208252 1.48457031 4.66838379 1.00976562 3.8918457 C0 2 0 2 0 0 Z " fill="#FAFAFA" transform="translate(288,71)"/>
<path d="M0 0 C4.62 0 9.24 0 14 0 C14 3.96 14 7.92 14 12 C16.97 12 19.94 12 23 12 C23 15.3 23 18.6 23 22 C20.03 22 17.06 22 14 22 C14.33 30.58 14.66 39.16 15 48 C18.465 48.495 18.465 48.495 22 49 C22.19406478 50.64507218 22.38007935 52.29109594 22.5625 53.9375 C22.66691406 54.85402344 22.77132813 55.77054688 22.87890625 56.71484375 C22.91886719 57.46894531 22.95882813 58.22304687 23 59 C21.15057253 60.84942747 18.29573569 60.2591876 15.8125 60.3125 C10.36837373 60.25883391 7.00408972 60.00408972 3 56 C0.36492234 51.58860296 -0.36333922 48.40265019 -0.29296875 43.2890625 C-0.28330078 42.04511719 -0.27363281 40.80117187 -0.26367188 39.51953125 C-0.23853516 38.23433594 -0.21339844 36.94914062 -0.1875 35.625 C-0.17396484 34.31660156 -0.16042969 33.00820312 -0.14648438 31.66015625 C-0.1112237 28.43968156 -0.06193633 25.22005394 0 22 C-1.98 22 -3.96 22 -6 22 C-6 18.7 -6 15.4 -6 12 C-4.02 12 -2.04 12 0 12 C0 8.04 0 4.08 0 0 Z " fill="#F6F6F6" transform="translate(343,59)"/>
<path d="M0 0 C0 3.96 0 7.92 0 12 C-1.5675 12.0825 -3.135 12.165 -4.75 12.25 C-7.92437611 12.41707243 -9.55192303 12.66734304 -12.12304688 14.57617188 C-14.70054188 17.90465397 -14.54301912 20.21020435 -14.609375 24.390625 C-14.62591125 25.09523865 -14.64244751 25.79985229 -14.65948486 26.52581787 C-14.70791139 28.76730102 -14.72932187 31.00810613 -14.75 33.25 C-14.77816448 34.77347151 -14.80809259 36.29691152 -14.83984375 37.8203125 C-14.91697946 41.54718508 -14.95753903 45.2719271 -15 49 C-19.62 49 -24.24 49 -29 49 C-29 33.16 -29 17.32 -29 1 C-24.71 1 -20.42 1 -16 1 C-15.67 2.98 -15.34 4.96 -15 7 C-14.21625 6.030625 -13.4325 5.06125 -12.625 4.0625 C-8.81028763 -0.65569688 -5.82970774 -0.09402754 0 0 Z " fill="#03F6BD" transform="translate(361,129)"/>
<path d="M0 0 C3.89249359 0.95605106 5.1526507 1.75112128 7.5625 4.875 C10.42185121 9.616586 10.07684868 14.49771839 9.5625 19.875 C8.25 23.375 8.25 23.375 6.5625 25.875 C6.170625 26.49375 5.77875 27.1125 5.375 27.75 C2.27048961 29.67693749 -0.97214063 29.60454934 -4.4375 28.875 C-7.96182957 26.17551352 -9.66879433 24.19512585 -10.4375 19.875 C-11.40126904 8.53096447 -11.40126904 8.53096447 -8.625 4.25 C-5.68796714 1.06122147 -4.42106186 -0.16076589 0 0 Z " fill="#4B514F" transform="translate(137.4375,139.125)"/>
<path d="M0 0 C2.69105198 2.17574416 4.45532928 3.91065856 6 7 C7.03836143 19.32415865 7.03836143 19.32415865 4.1875 23.6875 C1.58491408 26.43880511 -0.07292801 27.87907757 -3.875 28.375 C-7.79146966 27.90502364 -9.26817443 26.80770961 -12 24 C-14.54489593 18.74114163 -14.68885186 13.74043214 -14 8 C-11.39312712 0.96636184 -7.4659221 -1.31583301 0 0 Z " fill="#4A5150" transform="translate(196,140)"/>
<path d="M0 0 C2.75329021 1.79562405 4.52627461 3.05254922 6 6 C6.14977039 8.24655587 6.22150174 10.49863768 6.25 12.75 C6.27578125 13.96171875 6.3015625 15.1734375 6.328125 16.421875 C5.97164529 20.30920135 5.01353286 22.68185538 3 26 C0.64994965 27.78279682 -1.00765009 28.00113938 -3.9375 28.4375 C-8.06149803 27.84835742 -9.41472945 26.17618953 -12 23 C-13.14544249 19.56367253 -13.2397802 16.74568045 -13.3125 13.125 C-13.34988281 11.91070312 -13.38726562 10.69640625 -13.42578125 9.4453125 C-12.92772309 5.41515381 -11.83027718 3.84603011 -9 1 C-5.89951072 -0.55024464 -3.42105782 -0.28992015 0 0 Z " fill="#4B504F" transform="translate(251,140)"/>
<path d="M0 0 C7.26 0 14.52 0 22 0 C22 7.26 22 14.52 22 22 C20 19 20 19 18.80859375 16.73046875 C14.30445803 8.37664438 8.78610237 4.33532181 0 1 C0 0.67 0 0.34 0 0 Z " fill="#000000" transform="translate(671,0)"/>
<path d="M0 0 C0.33 0 0.66 0 1 0 C1 7.26 1 14.52 1 22 C-6.26 22 -13.52 22 -21 22 C-18 20 -18 20 -15.73046875 18.80859375 C-7.37664438 14.30445803 -3.33532181 8.78610237 0 0 Z " fill="#000000" transform="translate(692,218)"/>
<path d="M0 0 C2 3 2 3 3.19140625 5.26953125 C7.69554197 13.62335562 13.21389763 17.66467819 22 21 C22 21.33 22 21.66 22 22 C14.74 22 7.48 22 0 22 C0 14.74 0 7.48 0 0 Z " fill="#000000" transform="translate(0,218)"/>
<path d="M0 0 C7.26 0 14.52 0 22 0 C19 2 19 2 16.73046875 3.19140625 C8.37664438 7.69554197 4.33532181 13.21389763 1 22 C0.67 22 0.34 22 0 22 C0 14.74 0 7.48 0 0 Z " fill="#000000" transform="translate(0,0)"/>
<path d="M0 0 C2.5625 2.3125 2.5625 2.3125 4 5 C4 6.32 4 7.64 4 9 C-2.6 9 -9.2 9 -16 9 C-15.05313653 4.26568266 -14.62389352 2.74613612 -10.8828125 -0.109375 C-7.23464387 -1.83506473 -3.72645747 -1.29400705 0 0 Z " fill="#495552" transform="translate(307,140)"/>
<path d="M0 0 C2.63360978 1.41809757 3.91527728 2.7118897 6 5 C6 6.65 6 8.3 6 10 C-0.27 10 -6.54 10 -13 10 C-13 5 -13 5 -10.4375 2.1875 C-6.93572465 -0.4079335 -4.34977353 -0.77674527 0 0 Z " fill="#545454" transform="translate(263,80)"/>
</svg>
